<svg xmlns="http://www.w3.org/2000/svg" fill="none" stroke-linecap="square" stroke-miterlimit="10" viewBox="0 0 100 100">
  <clipPath id="a">
    <path d="M0 0h100v100H0V0z"/>
  </clipPath>
  <g clip-path="url(#a)">
    <path fill="none" d="M0 0h100v100H0z"/>
    <path fill="#000" fill-rule="evenodd" d="M0 49.987c0-27.614 22.386-50 50-50a50 50 0 0 1 50 50c0 27.614-22.386 50-50 50S0 77.6 0 49.987z"/>
    <path stroke="#000" stroke-linecap="butt" stroke-linejoin="round" d="M0 49.987c0-27.614 22.386-50 50-50a50 50 0 0 1 50 50c0 27.614-22.386 50-50 50S0 77.6 0 49.987z"/>
    <path fill="#fff" fill-rule="evenodd" d="M.866 50C.866 22.864 22.864.866 50 .866A49.134 49.134 0 0 1 99.134 50c0 27.136-21.998 49.134-49.134 49.134S.866 77.136.866 50z"/>
    <path fill="#000" fill-rule="evenodd" d="M7.417 49.955c0-23.5 19.051-42.55 42.551-42.55a42.551 42.551 0 0 1 42.552 42.55c0 23.5-19.051 42.552-42.552 42.552-23.5 0-42.55-19.051-42.55-42.552z"/>
    <path fill="#f1c232ff" fill-rule="evenodd" d="M16.93 49.954c0-18.264 14.807-33.07 33.071-33.07a33.07 33.07 0 0 1 33.071 33.07c0 18.265-14.806 33.071-33.07 33.071-18.265 0-33.072-14.806-33.072-33.07z"/>
    <path fill="#ffff00ff" fill-rule="evenodd" d="M21.62 49.954c0-15.655 12.692-28.346 28.347-28.346a28.346 28.346 0 0 1 28.347 28.346c0 15.656-12.691 28.347-28.347 28.347-15.655 0-28.346-12.691-28.346-28.347z"/>
  </g>
</svg>